<svg width="210" height="45" viewBox="0 0 210 45" fill="none" xmlns="http://www.w3.org/2000/svg">
<path d="M143.9 14.9568V16.4744C143.314 15.6006 141.966 14.468 139.561 14.468C135.642 14.468 132.173 17.4007 132.173 22.0847C132.173 26.1761 134.899 29.7298 139.561 29.7298C141.282 29.7298 143.11 29.0861 143.9 27.6972V29.2399H148.298V14.9568H143.9ZM143.9 22.316C143.855 22.9631 143.646 23.5894 143.292 24.139C142.736 25.014 141.782 25.7341 140.22 25.7341C137.572 25.7341 136.565 23.4701 136.565 22.1576V22.1314C136.565 20.5112 137.678 18.4524 140.193 18.4524C142.046 18.4524 143.052 19.455 143.53 20.4337C143.823 21.0163 143.951 21.6646 143.9 22.3114M155.45 16.5474V14.9523H151.319V29.2399H155.715V21.5697C155.715 19.5633 156.77 18.7657 159.025 18.7657H159.184V14.4646C156.641 14.4646 155.873 15.7772 155.45 16.5485M175.725 23.5795C176.069 20.959 175.513 18.6643 173.659 16.7354C172.282 15.3168 170.349 14.4646 168.098 14.4646C163.621 14.4646 160.39 18.1436 160.39 22.1325C160.393 24.1382 161.215 26.0608 162.674 27.4792C164.134 28.8976 166.112 29.6963 168.177 29.7002C169.677 29.7087 171.141 29.2579 172.363 28.4116C173.606 27.5878 174.639 26.3527 175.354 24.7576H170.852C170.322 25.5039 169.582 26.0952 168.177 26.0952C166.456 26.0952 164.973 25.0915 164.788 23.5738L175.725 23.5795ZM168.124 18.073C170.402 18.073 171.302 19.6681 171.408 20.3369H164.84C164.947 19.6681 165.848 18.073 168.124 18.073ZM189.181 14.9591V16.4767C188.595 15.6028 187.249 14.4703 184.842 14.4703C180.92 14.4703 177.454 17.403 177.454 22.087C177.454 26.1784 180.182 29.7321 184.842 29.7321C186.564 29.7321 188.391 29.0883 189.181 27.6995V29.2422H193.577V14.9568L189.181 14.9591ZM189.181 22.3182C189.136 22.9654 188.927 23.5917 188.573 24.1412C188.016 25.0163 187.062 25.7363 185.5 25.7363C182.853 25.7363 181.845 23.4724 181.845 22.1599V22.1337C181.845 20.5135 182.959 18.4547 185.48 18.4547C187.333 18.4547 188.341 19.4573 188.817 20.436C189.109 21.0192 189.237 21.667 189.187 22.3137M103.629 21.4398V29.2376H99.2281V21.6483C99.2281 21.0558 99.2281 20.2811 98.9372 19.6396C98.6722 18.9708 98.1163 18.482 96.9775 18.482C95.759 18.482 95.1503 19.0232 94.8595 19.6658C94.5405 20.3095 94.5405 21.033 94.5405 21.4421V29.2399H90.1461V21.4671C90.1461 21.0809 90.1461 20.3346 89.881 19.692C89.589 19.0232 89.0601 18.482 87.9483 18.482C86.7004 18.482 86.0917 19.0517 85.7739 19.7433C85.4561 20.4349 85.4561 21.2096 85.4561 21.6483V29.2399H81.0605V21.6187C81.0605 21.2336 81.0605 20.4873 80.7955 19.8435C80.5046 19.1747 79.9745 18.7862 78.8627 18.7862V14.6036C79.2973 14.5093 79.7415 14.4627 80.1868 14.4646C80.9415 14.4552 81.6874 14.6229 82.3611 14.9534C82.8049 15.1796 83.2065 15.4766 83.5492 15.8318C83.9007 16.1813 84.1956 16.5804 84.4241 17.0156C84.6408 16.6822 84.8889 16.369 85.1653 16.0802C85.2649 15.9746 85.3707 15.8746 85.4819 15.7806C86.3568 15.0081 87.5483 14.468 89.0859 14.468C89.148 14.468 89.2102 14.468 89.2735 14.468C90.2809 14.468 91.551 14.7255 92.637 15.8353C92.9881 16.1847 93.2827 16.5839 93.5108 17.0191C93.8019 16.5618 94.1572 16.1461 94.5663 15.784C95.4423 15.0081 96.6374 14.4646 98.1702 14.4646C99.2023 14.4646 100.843 14.6925 102.035 15.9059C103.411 17.321 103.624 18.2735 103.624 21.4387M130.067 21.4387V29.2365H125.672V21.6483C125.672 21.0558 125.672 20.2811 125.381 19.6396C125.116 18.9708 124.56 18.482 123.421 18.482C122.203 18.482 121.594 19.0232 121.303 19.6658C120.984 20.3095 120.984 21.033 120.984 21.4421V29.2399H116.59V21.4671C116.59 21.0809 116.59 20.3346 116.325 19.692C116.033 19.0232 115.504 18.482 114.392 18.482C113.144 18.482 112.536 19.0517 112.218 19.7433C111.9 20.4349 111.9 21.2096 111.9 21.6483V29.2399H107.504V21.6187C107.504 21.2336 107.504 20.4873 107.239 19.8435C106.948 19.1747 106.418 18.7862 105.307 18.7862V14.6036C105.741 14.5093 106.185 14.4627 106.631 14.4646C107.385 14.4552 108.131 14.6229 108.805 14.9534C109.248 15.1786 109.65 15.4744 109.993 15.8284C110.344 16.1778 110.639 16.577 110.868 17.0122C111.085 16.6788 111.333 16.3656 111.609 16.0768C111.709 15.9712 111.814 15.8712 111.926 15.7772C112.801 15.0047 113.992 14.4646 115.53 14.4646C115.592 14.4646 115.654 14.4646 115.717 14.4646C116.725 14.4646 117.995 14.7221 119.081 15.8318C119.432 16.1813 119.727 16.5805 119.955 17.0156C120.246 16.5584 120.601 16.1427 121.01 15.7806C121.884 15.0081 123.075 14.468 124.612 14.468C125.644 14.468 127.284 14.6959 128.482 15.9093C129.859 17.3244 130.071 18.2769 130.071 21.4421M196.471 14.9568H200.868V25.3934H207.605V29.2399H196.471V14.9568ZM76.2744 24.3532C76.0551 23.8222 76.0176 23.2218 76.0117 22.8093C76.0117 22.7239 76.0117 22.6441 76.0117 22.5814V14.9568H71.6138V16.4744C71.0274 15.6006 69.681 14.468 67.2745 14.468C63.3562 14.468 59.886 17.4007 59.886 22.0847C59.886 26.1761 62.6139 29.7298 67.2745 29.7298C68.995 29.7298 70.9383 29.38 72.4429 27.8054C72.5602 27.6812 72.6775 27.5525 72.7948 27.4192C73.0223 27.7997 73.7823 28.4697 74.7205 28.9152C75.4005 29.2239 76.1443 29.3771 76.8948 29.3629C77.2322 29.3631 77.5693 29.3402 77.9034 29.2946C78.0113 29.2786 78.118 29.2593 78.2189 29.2399V25.4105C77.1071 25.4105 76.577 25.022 76.2861 24.3532M71.6255 22.316C71.58 22.963 71.3709 23.5891 71.0168 24.139C70.4609 25.014 69.5075 25.7341 67.9418 25.7341C65.2937 25.7341 64.2874 23.4701 64.2874 22.1576V22.1314C64.2874 20.5112 65.4004 18.4524 67.916 18.4524C69.769 18.4524 70.7752 19.455 71.2549 20.4337C71.5469 21.0169 71.6747 21.6647 71.6255 22.3114" fill="#FF3A00"/>
<path d="M41.7519 21.8973V1.55939L35.3464 0L27.1163 1.55939L33.5211 3.1195V6.55146L33.4431 6.48854C26.2716 1.58442 13.9979 4.57594 9.17863 19.6622H9.17445C9.14448 19.7566 9.11312 19.8553 9.08733 19.9482C8.60396 21.5461 8.41073 23.2215 8.51724 24.891C8.62355 27.1999 9.48255 29.4053 10.9565 31.1536C11.8083 32.1239 12.8986 32.8416 14.1134 33.2315C15.3282 33.6214 16.6227 33.6693 17.8617 33.37C15.5925 30.706 14.8287 26.3288 16.2044 22.0203C17.5802 17.7117 20.7219 14.6487 24.0874 13.8808C25.3586 13.5782 26.6861 13.6363 27.9275 14.0488C28.8269 14.3529 29.6576 14.8392 30.3703 15.4788C31.6971 16.7131 32.6359 18.3244 33.0674 20.1077C33.6521 22.4801 33.5814 24.9727 32.8632 27.3062C32.8367 27.402 32.6966 27.8339 32.6799 27.8782C27.5184 43.5708 14.2112 45.9338 7.33454 39.8464L7.31642 39.8679C9.38834 41.6875 11.7892 43.0708 14.3819 43.939C14.8698 44.1027 15.3576 44.2457 15.849 44.368C19.761 45.3651 23.8707 45.1792 27.6819 43.8327C31.4932 42.4862 34.843 40.0366 37.3271 36.7798C41.4975 41.9757 47.6856 39.1722 47.6856 39.1722V29.1537C43.734 30.0861 42.0195 28.0198 41.7519 21.8973Z" fill="#FF3A00"/>
<path d="M27.107 4.34929C20.4443 3.9253 12.7501 8.45262 9.16928 19.6622H9.1651C9.13513 19.7566 9.10377 19.8553 9.07799 19.9482C8.59462 21.5461 8.40138 23.2215 8.50789 24.891C8.61378 27.2 9.47283 29.4055 10.9472 31.1536C11.7989 32.1239 12.8893 32.8416 14.104 33.2315C15.3188 33.6214 16.6134 33.6693 17.8524 33.37C21.2179 32.6 24.3582 29.5384 25.7354 25.2284C26.7817 22.1682 26.6412 18.8125 25.343 15.8556C25.297 15.752 25.2447 15.649 25.1911 15.5475C24.8826 14.9501 24.5084 14.3909 24.076 13.8808C25.3472 13.5782 26.6747 13.6363 27.9161 14.0488C28.8155 14.3529 29.6461 14.8392 30.3588 15.4788C31.6851 16.7135 32.6239 18.3246 33.056 20.1077C33.6407 22.4801 33.57 24.9727 32.8518 27.3062C32.8253 27.402 32.6852 27.8339 32.6685 27.8782C27.507 43.5708 14.1997 45.9338 7.32311 39.8464L7.30499 39.8679C3.65109 36.6622 1.18827 32.2604 0.332926 27.4068C-0.522421 22.5531 0.282174 17.5453 2.61068 13.2301C4.93919 8.91482 8.64875 5.55683 13.1122 3.72383C17.5757 1.89084 22.5192 1.6953 27.107 3.17027V1.5594L33.5118 3.1195V6.55146L33.4337 6.48854C32.2693 5.69916 30.9853 5.11349 29.634 4.7554C28.8062 4.53768 27.96 4.40169 27.107 4.34929ZM47.6762 29.1537L42.4179 26.3974C43.2681 28.9979 44.9317 29.8015 47.6762 29.1537Z" fill="#114970"/>
</svg>
