<svg width="225" height="64" viewBox="0 0 225 64" fill="none" xmlns="http://www.w3.org/2000/svg">
<g clip-path="url(#clip0_160_365)">
<path d="M20.4545 63.6279H0.0703125V26.1209H4.52263V63.0921H20.4545V63.6279Z" fill="#3D5361"/>
<path d="M27.5798 50.554C27.5798 54.9834 28.3487 58.2341 29.8864 60.3059C31.4599 62.3777 33.5162 63.4136 36.0553 63.4136C39.6315 63.4136 42.8142 62.8778 45.6037 61.8061L45.7646 62.1812C42.9037 63.2886 39.6672 63.8422 36.0553 63.8422C32.4791 63.8422 29.5646 62.7706 27.3116 60.6274C25.0586 58.4841 23.9321 55.1799 23.9321 50.7148C23.9321 46.2497 25.1123 42.7847 27.4725 40.32C29.8328 37.8553 32.8368 36.6229 36.4844 36.6229C39.4169 36.6229 41.8844 37.498 43.8871 39.2484C45.8897 40.9987 46.8911 43.5885 46.8911 47.0177C46.8911 47.1963 46.8911 47.3749 46.8911 47.5535H27.7407C27.6335 48.518 27.5798 49.5181 27.5798 50.554ZM43.2434 47.1248C43.2076 43.6956 42.546 41.1594 41.2586 39.5163C39.9712 37.8731 38.3083 37.0515 36.2699 37.0515C34.2315 37.0515 32.4076 37.9446 30.7984 39.7306C29.2248 41.5167 28.2235 43.9814 27.7944 47.1248H43.2434Z" fill="#3D5361"/>
<path d="M63.9981 37.0515C61.459 37.0515 59.3312 38.266 57.6147 40.6951C55.9339 43.1241 55.0935 46.4819 55.0935 50.7684C55.0935 55.0549 55.8624 58.2341 57.4001 60.3059C58.9736 62.3777 61.0299 63.4136 63.569 63.4136C66.7518 63.4136 69.5769 62.8778 72.0445 61.8061L72.2054 62.1812C69.6663 63.2886 66.6981 63.8422 63.3008 63.8422C59.9034 63.8422 57.0782 62.7706 54.8253 60.6274C52.5723 58.4841 51.4458 55.1799 51.4458 50.7148C51.4458 46.2497 52.6259 42.7847 54.9862 40.32C57.3465 37.8553 60.3504 36.6229 63.9981 36.6229C66.0365 36.6229 67.914 37.0873 69.6306 38.016C71.3829 38.9447 72.6703 40.3557 73.4928 42.2489H70.0597C69.5233 40.4986 68.7008 39.1948 67.5922 38.3375C66.5193 37.4802 65.3213 37.0515 63.9981 37.0515Z" fill="#3D5361"/>
<path d="M81.7721 57.466C81.7721 60.288 82.523 62.0919 84.025 62.8778C84.7403 63.235 85.6522 63.4136 86.7608 63.4136C89.0138 63.4136 91.0164 62.5563 92.7687 60.8417C94.5568 59.1271 95.5224 57.5375 95.6654 56.0729V36.8372H99.4204V59.8236C99.4204 60.8595 99.6171 61.6632 100.01 62.2348C100.44 62.7706 100.869 63.0564 101.298 63.0921L101.888 63.1993H103.551V63.6279H100.279C98.8124 63.6279 97.686 63.3064 96.8992 62.6634C96.1482 62.0205 95.7548 61.3775 95.7191 60.7345L95.6654 59.8236V57.5196C95.0217 59.0556 93.8773 60.5023 92.2323 61.8597C90.5873 63.1814 88.7813 63.8422 86.8144 63.8422C84.8833 63.8422 83.2919 63.6636 82.0403 63.3064C80.8244 62.9135 79.9482 62.3777 79.4118 61.699C78.482 60.5916 78.0171 59.1628 78.0171 57.4125V36.8372H81.7721V57.466Z" fill="#3D5361"/>
<path d="M118.663 63.8422C114.908 63.8422 111.85 62.7706 109.49 60.6274C107.13 58.4841 105.95 55.1799 105.95 50.7148C105.95 46.2497 107.166 42.7847 109.597 40.32C112.065 37.8553 115.176 36.6229 118.931 36.6229C122.722 36.6229 125.797 37.6945 128.158 39.8378C130.518 41.981 131.698 45.2852 131.698 49.7503C131.698 54.2154 130.464 57.6804 127.997 60.1451C125.565 62.6099 122.454 63.8422 118.663 63.8422ZM119.038 37.0515C116.321 37.0515 114.068 38.266 112.28 40.6951C110.491 43.0884 109.597 46.4461 109.597 50.7684C109.597 55.0549 110.42 58.2341 112.065 60.3059C113.71 62.3777 115.891 63.4136 118.609 63.4136C121.327 63.4136 123.58 62.2169 125.368 59.8236C127.156 57.3946 128.05 54.0368 128.05 49.7503C128.05 45.4281 127.228 42.2311 125.583 40.1593C123.938 38.0874 121.756 37.0515 119.038 37.0515Z" fill="#3D5361"/>
<path d="M157.926 63.6279C156.459 63.6279 155.333 63.3064 154.546 62.6634C153.795 62.0205 153.402 61.3775 153.366 60.7345L153.312 59.8236V42.9991C153.312 40.1771 152.579 38.3732 151.113 37.5873C150.362 37.2301 149.432 37.0515 148.324 37.0515C146.035 37.0515 143.979 37.9624 142.155 39.7842C140.331 41.5702 139.419 43.1777 139.419 44.6065V63.6279H135.664V36.8372H139.419V42.9455C140.027 41.4095 141.153 39.9807 142.799 38.659C144.444 37.3016 146.249 36.6229 148.216 36.6229C150.183 36.6229 151.775 36.8194 152.991 37.2123C154.242 37.5695 155.154 38.0874 155.726 38.7661C156.62 39.8735 157.067 41.3023 157.067 43.0527V59.8236C157.067 60.8595 157.264 61.6633 157.657 62.2348C158.087 62.7706 158.516 63.0564 158.945 63.0921L159.535 63.1993H161.198V63.6279H157.926Z" fill="#3D5361"/>
<path d="M186.799 63.6279C184.367 63.6279 182.704 63.1635 181.81 62.2348C180.988 61.4489 180.576 60.7702 180.576 60.1987V59.0735C178.824 62.2527 176.017 63.8422 172.155 63.8422C167.649 63.8422 165.092 61.8061 164.484 57.734C164.412 57.3053 164.376 56.8767 164.376 56.448C164.376 55.9836 164.448 55.4835 164.591 54.9477C164.734 54.4119 165.145 53.8225 165.825 53.1795C167.184 51.8936 170.17 51.1077 174.783 50.822C175.927 50.7148 176.982 50.6612 177.948 50.6612C178.914 50.6612 179.79 50.6969 180.576 50.7684V41.8739C180.505 41.8381 180.505 41.6774 180.576 41.3916C180.648 41.0701 180.576 40.6772 180.362 40.2128C180.183 39.7127 179.933 39.2305 179.611 38.7661C179.289 38.3018 178.717 37.9088 177.894 37.5873C177.072 37.2301 175.999 37.0515 174.676 37.0515C173.353 37.0515 171.797 37.3016 170.009 37.8017C168.257 38.266 166.969 38.7304 166.147 39.1948L165.932 38.8197C169.115 37.3552 172.351 36.6229 175.641 36.6229C179.325 36.6229 181.757 37.2837 182.937 38.6054C183.867 39.6413 184.331 40.7308 184.331 41.8739V59.8236C184.331 60.8595 184.528 61.6633 184.922 62.2348C185.351 62.7706 185.78 63.0564 186.209 63.0921L186.799 63.1993H188.462V63.6279H186.799ZM173.013 63.4136C174.908 63.4136 176.607 62.7706 178.109 61.4847C179.647 60.163 180.469 58.8949 180.576 57.6804V51.197C179.611 51.1256 178.627 51.0899 177.626 51.0899C176.661 51.0899 175.695 51.1434 174.729 51.2506C172.012 51.5721 170.241 52.1794 169.419 53.0724C168.596 53.9654 168.185 55.1978 168.185 56.7695C168.185 57.0553 168.203 57.3767 168.239 57.734C168.561 61.5204 170.152 63.4136 173.013 63.4136Z" fill="#3D5361"/>
<path d="M64.3439 40.186H63.7002L79.7393 2.67907L80.3293 2.41116L93.8472 40.186H89.2876L85.1035 28.3981H69.4399L64.3439 40.186ZM78.0764 8.46586L69.6545 27.8623H84.9426L78.0764 8.46586Z" fill="#3D5361"/>
<path d="M102.106 34.0242C102.106 36.8461 102.857 38.65 104.359 39.4359C105.074 39.7931 105.986 39.9717 107.095 39.9717C109.348 39.9717 111.35 39.1144 113.103 37.3998C114.891 35.6852 115.856 34.0956 115.999 32.6311V13.3953H119.754V36.3818C119.754 37.4177 119.951 38.2214 120.344 38.7929C120.774 39.3287 121.203 39.6145 121.632 39.6502L122.222 39.7574H123.885V40.186H120.613C119.146 40.186 118.02 39.8646 117.233 39.2216C116.482 38.5786 116.089 37.9356 116.053 37.2926L115.999 36.3818V34.0778C115.356 35.6138 114.211 37.0605 112.566 38.4179C110.921 39.7395 109.115 40.4004 107.148 40.4004C105.217 40.4004 103.626 40.2218 102.374 39.8646C101.158 39.4716 100.282 38.9358 99.7458 38.2571C98.816 37.1498 98.3511 35.7209 98.3511 33.9706V13.3953H102.106V34.0242Z" fill="#3D5361"/>
<path d="M125.708 27.7552C125.708 23.1114 126.834 19.5215 129.087 16.9853C131.34 14.4491 134.72 13.181 139.226 13.181C141.336 13.181 143.464 13.7168 145.609 14.7885V0.0535812H149.364V36.3818C149.364 37.4177 149.561 38.2214 149.954 38.7929C150.383 39.3287 150.813 39.6145 151.242 39.6502L151.832 39.7574H153.495V40.186H150.223C148.756 40.186 147.63 39.8646 146.843 39.2216C146.092 38.5786 145.699 37.9356 145.663 37.2926L145.609 36.3818V35.5245C144.93 36.7747 143.803 37.882 142.23 38.8465C140.656 39.811 138.797 40.2932 136.651 40.2932C129.356 40.1146 125.708 35.9353 125.708 27.7552ZM136.705 39.8646C139.101 39.8646 141.157 39.2216 142.874 37.9356C144.59 36.6497 145.502 35.3816 145.609 34.1313V15.2707C143.07 14.1633 140.889 13.6097 139.065 13.6097C135.882 13.6097 133.486 14.8599 131.877 17.3604C130.268 19.8251 129.463 23.29 129.463 27.7552C129.463 35.8281 131.877 39.8646 136.705 39.8646Z" fill="#3D5361"/>
<path d="M167.711 15.6993V14.5741C166.101 15.2171 164.635 16.5209 163.312 18.4856C161.989 20.4145 161.291 22.2363 161.22 23.9509V40.186H157.465V13.3953H161.22V21.9148C161.792 19.843 162.883 17.8962 164.492 16.0744C166.101 14.2169 167.925 13.2525 169.964 13.181H170.178C170.893 13.181 171.483 13.4311 171.948 13.9312C172.449 14.3955 172.699 14.9849 172.699 15.6993C172.699 16.4138 172.449 17.0032 171.948 17.4675C171.483 17.9319 170.893 18.1641 170.178 18.1641C169.463 18.1641 168.873 17.9319 168.408 17.4675C167.943 17.0032 167.711 16.4138 167.711 15.6993Z" fill="#3D5361"/>
<path d="M179.511 27.1122C179.511 31.5416 180.28 34.7922 181.818 36.864C183.392 38.9358 185.448 39.9717 187.987 39.9717C191.563 39.9717 194.746 39.4359 197.535 38.3643L197.697 38.7393C194.836 39.8467 191.598 40.4004 187.987 40.4004C184.411 40.4004 181.496 39.3287 179.243 37.1855C176.99 35.0422 175.864 31.738 175.864 27.2729C175.864 22.8078 177.044 19.3429 179.404 16.8781C181.764 14.4134 184.768 13.181 188.415 13.181C191.349 13.181 193.817 14.0562 195.819 15.8065C197.821 17.5568 198.823 20.1466 198.823 23.5758C198.823 23.7544 198.823 23.933 198.823 24.1116H179.672C179.565 25.0761 179.511 26.0763 179.511 27.1122ZM195.175 23.683C195.139 20.2538 194.478 17.7176 193.191 16.0744C191.902 14.4313 190.241 13.6097 188.201 13.6097C186.163 13.6097 184.339 14.5027 182.73 16.2887C181.156 18.0748 180.155 20.5395 179.726 23.683H195.175Z" fill="#3D5361"/>
<path d="M209.451 49.7771C208.307 52.3133 206.894 53.5814 205.214 53.5814C204.463 53.5814 203.586 53.4564 202.585 53.2063V52.7777C203.407 52.992 204.141 53.0992 204.785 53.0992C206.609 53.0992 208.004 51.9918 208.969 49.7771L213.474 40.186H213.42L203.444 13.3953H207.199L215.514 35.7388L223.72 18.7535C224.149 18.0033 224.365 17.1103 224.365 16.0744C224.365 15.0385 224.078 14.2526 223.506 13.7168L223.828 13.3953C223.97 13.4668 224.149 13.6811 224.365 14.0383C224.614 14.3955 224.758 14.717 224.793 15.0028C224.864 15.2886 224.901 15.5565 224.901 15.8065C224.901 16.771 224.685 17.7533 224.257 18.7535L213.957 40.186L209.451 49.7771Z" fill="#3D5361"/>
</g>
<defs>
<clipPath id="clip0_160_365">
<rect width="225" height="64" fill="white"/>
</clipPath>
</defs>
</svg>
