<svg width="163" height="50" viewBox="0 0 163 50" fill="none" xmlns="http://www.w3.org/2000/svg">
<path fill-rule="evenodd" clip-rule="evenodd" d="M2.78869 35.1409L7.95462 35.2667L8.09493 32.5603C9.32469 32.9717 10.0461 34.7049 14.4277 35.6201C21.2132 37.041 26.9482 33.6666 29.8871 28.009C30.8726 26.1135 30.7757 25.2251 31.2452 24.644C32.0224 25.7575 31.4946 28.7787 35.818 32.6423C41.0059 37.2807 48.8761 36.971 54.3955 32.6328C56.1821 31.2262 58.327 27.8976 59.1162 24.7529C59.2445 24.9346 59.1596 24.7506 59.3436 25.1429C59.7454 25.9998 59.7722 26.6146 60.484 27.8638C61.0794 28.9047 61.6291 29.607 62.2972 30.4251C69.5017 39.2322 80.2429 34.6421 80.9981 33.3351C81.4435 32.0182 81.1796 29.641 81.1213 28.0769C80.1458 28.503 78.6472 30.2461 75.4785 30.9093C73.2513 31.379 69.4577 31.1613 68.7462 29.3698C69.274 28.629 70.138 28.1109 70.8186 27.53C71.2009 27.2009 71.3752 26.9538 71.7504 26.644C73.951 24.8139 84.2371 15.1936 85.4523 14.8787C85.324 18.302 86.4712 20.8775 88.6332 21.967C90.9451 23.129 94.0777 23.4727 95.7918 25.0268C96.5421 25.7048 97.4429 27.1766 97.0793 28.7887C96.8518 29.8007 95.5252 31.103 94.5546 31.379C93.148 31.7808 91.5211 31.2484 90.5965 30.5848C89.5553 29.8344 89.1707 28.5853 88.9673 26.9584H84.2926C84.3411 29.9456 85.0623 31.3303 86.5512 32.9814C87.7421 34.3032 89.265 35.7701 91.9883 35.8864C100.059 36.2202 101.156 30.3982 101.989 29.4373L102.02 35.2521L107.092 35.2424C107.036 30.4008 107.102 25.5881 107.087 20.795C107.06 12.0752 115.115 10.8721 118.831 14.9365C120.416 16.6723 120.45 17.7689 120.45 20.6159C120.448 25.4914 120.436 30.3719 120.45 35.2449L125.509 35.2424C125.519 33.6543 125.26 25.0363 125.558 24.3826C126.163 25.3558 127.061 31.4225 132.946 34.204C135.052 35.1989 137.522 35.7847 140.156 35.6298C143.38 35.441 144.537 34.5792 146.944 33.64V28.0672C145.714 28.5055 144.654 30.2219 141.586 30.8125C139.366 31.2434 135.764 30.9237 135.019 29.3698L146.825 18.718C148.222 17.5997 149.451 16.394 150.885 15.3531C151.101 15.0771 150.553 15.1159 151.265 15.1353L151.311 35.1072L156.022 35.2232C155.852 31.4782 156.007 25.2205 156.003 20.979L156.017 19.3281C156.095 18.8632 156.133 18.9478 156.172 18.8535C156.615 13.0725 162.275 13.2421 162.643 12.6561C162.859 12.3076 162.752 9.06372 162.665 8.49484C158.399 8.34227 157.029 10.6472 156.46 10.8503L155.894 10.8843C155.598 10.25 155.693 9.82885 155.616 8.98166L151.096 8.90907L151.091 13.5184C149.016 11.7995 148.396 10.3617 145.031 8.98189C139.774 6.83697 133.082 7.87302 129.219 12.6106C128.488 13.5112 127.641 14.511 127.038 15.7116C126.595 16.5882 125.769 19.0112 125.447 19.4977C124.885 16.1133 124.982 13.4046 121.878 10.6083C117.831 6.96757 111.145 7.58245 108.017 10.192C107.368 10.7343 107.494 10.8603 106.695 11.1506C106.668 10.3275 106.826 9.26714 106.627 8.68138L102.018 8.61596L101.946 25.6077C101.912 24.988 100.914 23.3636 100.566 22.8045C97.9801 18.66 90.149 19.7155 90.1173 15.5082C90.0907 11.7655 94.6348 11.0054 96.1646 13.8861C97.1255 15.6968 95.6854 15.3434 101.19 15.2902C101.089 11.0489 98.0673 8.26969 93.8188 8.08083C91.2599 7.9671 89.9333 8.62059 88.3355 9.83833C86.4835 11.2569 86.336 12.0584 85.5443 13.6245L85.2415 14.1111C84.3751 13.1693 84.8929 13.0385 82.5859 11.2375C81.5792 10.4532 80.5624 9.75835 79.18 9.16543C73.3847 6.67678 67.2599 7.99854 63.0572 12.293C61.3869 13.9948 60.1136 16.1785 59.2276 19.2795C57.9156 15.8854 57.291 14.1765 54.4128 11.6733C52.2314 9.77522 48.9344 8.40029 45.1094 8.39058C38.5683 8.38087 34.511 11.8961 31.9981 17.1734C31.6495 17.9095 31.4463 18.8486 31.0878 19.5218C30.284 17.1009 29.2868 14.835 27.8536 13.247C26.4276 11.6686 24.8444 10.2306 22.3632 9.25257C18.7707 7.8291 14.314 7.91139 10.8714 9.91114C9.84272 10.5066 9.03875 11.4363 8.08522 11.901L8.0806 0H2.78869V35.1409ZM131.332 25.6075C129.429 21.5791 130.807 16.9069 133.484 14.8637C136.016 12.9271 141.117 11.2324 144.351 14.0454C144.182 14.8808 132.555 25.3558 131.332 25.6075ZM65.1152 25.7866C64.2872 23.3851 63.75 22.7122 64.4592 19.5359C65.2943 15.7957 68.8868 13.0068 72.3049 12.7914C74.3481 12.6656 76.9528 13.0625 78.0229 14.2294C77.8148 15.0526 75.7108 16.6189 74.8856 17.3766C73.4672 18.6792 65.6332 25.5881 65.1152 25.7866ZM15.8563 13.0242C21.129 12.2542 25.4184 16.4326 26.1204 20.8193C26.9729 26.1766 22.9009 30.4905 18.3013 31.0737C12.8108 31.766 8.39521 27.951 7.94745 23.1285C7.43682 17.6381 11.121 13.7165 15.8563 13.0242ZM43.9816 13.2273C49.1768 12.4527 53.6165 16.4326 54.1974 20.819C54.9479 26.4401 51.1713 30.3571 46.4845 31.0882C34.4941 32.9523 32.0032 15.0091 43.9816 13.2273Z" fill="#006B5A"/>
<path d="M0 49.8689V42.5338H2.22721L3.53926 47.5354L4.83907 42.5338H7.06859V49.8689H5.6962L5.69135 44.093L4.24591 49.8689H2.81759L1.37978 44.093L1.3747 49.8689H0Z" fill="#006B5A"/>
<path d="M12.4479 46.9591L11.4262 44.243L10.4386 46.9591H12.4479ZM15.1617 49.8689H13.5614L12.9271 48.1984H9.98812L9.37809 49.8689H7.80691L10.6539 42.5338H12.2248L15.1617 49.8689Z" fill="#006B5A"/>
<path d="M16.8415 49.8689V43.7733H14.67V42.5338H20.4896V43.7733H18.3255V49.8689H16.8415Z" fill="#006B5A"/>
<path d="M23.4674 41.8658L24.1648 40.3695H25.7335L24.3486 41.8658H23.4674ZM21.4485 49.8689V42.5338H26.8807V43.7733H22.9348V45.4002H26.6022V46.6394H22.9348V48.6292H27.0212V49.8687H21.4485V49.8689Z" fill="#006B5A"/>
<path d="M29.7688 45.6376H30.8654C31.5746 45.6376 32.0175 45.6085 32.1943 45.5456C32.3712 45.4876 32.5115 45.381 32.6083 45.2356C32.7098 45.0904 32.7584 44.9064 32.7584 44.6836C32.7584 44.4369 32.6929 44.2381 32.5598 44.0833C32.4292 43.9333 32.2452 43.8364 32.0032 43.7976C31.8823 43.783 31.5237 43.7735 30.9234 43.7735H29.7688V45.6376ZM28.2824 49.8689V42.5338H31.4029C32.1874 42.5338 32.7561 42.6018 33.1123 42.7324C33.468 42.863 33.7512 43.0953 33.9643 43.4344C34.1774 43.7733 34.2863 44.1559 34.2863 44.5865C34.2863 45.1387 34.1243 45.5937 33.8023 45.952C33.4803 46.3102 32.9985 46.5377 32.3571 46.6297C32.6765 46.8186 32.938 47.022 33.1462 47.2446C33.3543 47.4674 33.6351 47.8646 33.9837 48.4358L34.8795 49.8687H33.1097L32.0471 48.2661C31.6668 47.6995 31.4056 47.3389 31.2625 47.1912C31.1222 47.0435 30.9771 46.9395 30.8171 46.8863C30.6597 46.8331 30.4105 46.8042 30.0693 46.8042H29.769V49.8689H28.2824Z" fill="#006B5A"/>
<path d="M37.1162 42.5338H35.6296V49.8689H37.1162V42.5338Z" fill="#006B5A"/>
<path d="M38.5248 49.8689V42.5338H43.9571V43.7733H40.0112V45.4002H43.679V46.6397H40.0112V48.6295H44.1001V49.8689H38.5248Z" fill="#006B5A"/>
<path d="M45.3999 49.8689V42.5967H46.8863V48.6295H50.5636V49.8689H45.3999Z" fill="#006B5A"/>
<path d="M55.7635 45.8625H56.5695C57.153 45.8625 57.5401 45.8214 57.7366 45.7462C57.9347 45.6713 58.0875 45.55 58.1989 45.3854C58.3078 45.2208 58.3661 45.0322 58.3661 44.814C58.3661 44.5428 58.2884 44.3251 58.1312 44.1508C57.9736 43.9765 57.7778 43.8653 57.5381 43.8216C57.3612 43.7879 57.008 43.7731 56.4752 43.7731H55.7635V45.8625ZM54.2797 49.8689V42.5338H56.652C57.5526 42.5338 58.1386 42.5678 58.4095 42.6429C58.8307 42.7541 59.1844 42.9941 59.465 43.3618C59.7507 43.7298 59.8913 44.2044 59.8913 44.7902C59.8913 45.2405 59.809 45.6182 59.649 45.9256C59.4844 46.233 59.2764 46.4751 59.0244 46.6494C58.7752 46.8237 58.5186 46.9399 58.2595 46.9982C57.9061 47.0659 57.3975 47.1022 56.7244 47.1022H55.7635V49.8692L54.2797 49.8689Z" fill="#006B5A"/>
<path d="M62.3314 46.1942C62.3314 47.0271 62.5248 47.6563 62.9074 48.0872C63.2898 48.5157 63.7789 48.7312 64.3695 48.7312C64.9624 48.7312 65.4492 48.518 65.8267 48.092C66.207 47.6658 66.3958 47.0268 66.3958 46.1746C66.3958 45.332 66.2118 44.7028 65.8415 44.2913C65.4735 43.875 64.9844 43.6716 64.3697 43.6716C63.7595 43.6716 63.2657 43.8796 62.8928 44.2962C62.5177 44.7176 62.3314 45.3516 62.3314 46.1942ZM60.8036 46.2428C60.8036 45.497 60.9174 44.8676 61.1402 44.3593C61.3048 43.9866 61.5348 43.6501 61.8231 43.3524C62.1111 43.0572 62.428 42.8343 62.7717 42.6892C63.2269 42.498 63.7546 42.3986 64.3526 42.3986C65.4349 42.3986 66.299 42.7375 66.9499 43.4055C67.5988 44.0784 67.9233 45.013 67.9233 46.2113C67.9233 47.3976 67.5988 48.3248 66.955 48.9954C66.3112 49.6657 65.4492 50 64.3743 50C63.2826 50 62.4137 49.6683 61.7696 49.0028C61.1259 48.3343 60.8036 47.4143 60.8036 46.2428Z" fill="#006B5A"/>
<path d="M69.0782 42.5338H70.5648V46.5088C70.5648 47.1385 70.5814 47.5474 70.6202 47.734C70.6831 48.034 70.8308 48.2763 71.0659 48.4577C71.3028 48.6392 71.6274 48.7314 72.034 48.7314C72.4506 48.7314 72.7652 48.6443 72.9781 48.4748C73.1863 48.3005 73.3146 48.0925 73.3558 47.8405C73.3992 47.5888 73.4235 47.1725 73.4235 46.5916V42.534H74.9075V46.3907C74.9075 47.2693 74.8664 47.8939 74.7887 48.2571C74.7067 48.62 74.5613 48.93 74.3458 49.1817C74.1327 49.4311 73.8447 49.6274 73.4864 49.7772C73.1281 49.9272 72.6586 50 72.0798 50C71.3805 50 70.8526 49.9226 70.4943 49.758C70.1313 49.5982 69.8454 49.3851 69.6374 49.1283C69.4268 48.8669 69.2888 48.5957 69.2259 48.3128C69.1267 47.8937 69.0782 47.2691 69.0782 46.451V42.5338Z" fill="#006B5A"/>
<path d="M77.9627 45.6376H79.0594C79.7686 45.6376 80.2115 45.6085 80.3883 45.5456C80.5651 45.4876 80.7054 45.381 80.8023 45.2356C80.904 45.0904 80.9523 44.9064 80.9523 44.6836C80.9523 44.4369 80.8869 44.2381 80.7538 44.0833C80.6234 43.9333 80.4392 43.8364 80.1994 43.7976C80.0762 43.783 79.7177 43.7735 79.1174 43.7735H77.9627V45.6376ZM76.4764 49.8689V42.5338H79.5966C80.3811 42.5338 80.9498 42.6018 81.306 42.7324C81.6617 42.863 81.9449 43.0953 82.158 43.4344C82.3712 43.7733 82.48 44.1559 82.48 44.5865C82.48 45.1387 82.3205 45.5937 81.996 45.952C81.674 46.3102 81.1923 46.5377 80.5508 46.6297C80.8703 46.8186 81.1319 47.022 81.34 47.2446C81.548 47.4674 81.8289 47.8646 82.1775 48.4358L83.0732 49.8687H81.3037L80.2408 48.2661C79.8608 47.6995 79.5993 47.3389 79.4563 47.1912C79.3159 47.0435 79.1708 46.9395 79.0108 46.8863C78.8534 46.8331 78.6042 46.8042 78.263 46.8042H77.9627V49.8689H76.4764Z" fill="#006B5A"/>
<path d="M88.2049 46.6614V48.6295H89.5775C90.1124 48.6295 90.4513 48.6126 90.5944 48.586C90.8145 48.5425 90.9936 48.4457 91.1316 48.2908C91.2696 48.1311 91.3397 47.9279 91.3397 47.6662C91.3397 47.4436 91.2888 47.2596 91.1799 47.1045C91.0734 46.9496 90.9185 46.8384 90.7176 46.7656C90.5144 46.6979 90.0785 46.6616 89.4007 46.6616H88.2049V46.6614ZM88.2049 43.7539V45.4439H89.1758C89.7493 45.4439 90.1078 45.4342 90.2484 45.4173C90.5026 45.3882 90.7035 45.301 90.8489 45.1556C90.9915 45.013 91.0643 44.8193 91.0643 44.5867C91.0643 44.3593 90.9989 44.1753 90.8778 44.0347C90.7518 43.8921 90.5653 43.8073 90.3212 43.7784C90.1735 43.759 89.7495 43.7541 89.0574 43.7541L88.2049 43.7539ZM89.6527 42.5338C90.2359 42.5338 90.6693 42.5581 90.9525 42.6064C91.2405 42.6549 91.4948 42.7564 91.7199 42.9067C91.9451 43.0616 92.1314 43.265 92.2816 43.5167C92.4314 43.7733 92.5091 44.0592 92.5091 44.3738C92.5091 44.7176 92.4171 45.0324 92.2305 45.3179C92.0468 45.6034 91.7973 45.8165 91.4802 45.9619C91.9259 46.0925 92.2671 46.3151 92.5091 46.6299C92.7462 46.9448 92.8674 47.3128 92.8674 47.7388C92.8674 48.0728 92.7899 48.3974 92.6351 48.712C92.48 49.0266 92.2671 49.2783 91.9957 49.472C91.7296 49.656 91.3979 49.7723 91.0033 49.8209C90.7564 49.8449 90.1607 49.8595 89.2167 49.8692H86.7181V42.5338H89.6527Z" fill="#006B5A"/>
<path d="M94.1166 49.8689V42.5338H99.549V43.7733H95.6031V45.4002H99.2707V46.6397H95.6031V48.6295H99.6919V49.8689H94.1166Z" fill="#006B5A"/>
<path d="M104.843 46.9591L103.825 44.243L102.834 46.9591H104.843ZM107.557 49.8689H105.959L105.325 48.1984H102.384L101.774 49.8689H100.202L103.052 42.5338H104.621L107.557 49.8689Z" fill="#006B5A"/>
<path d="M108.349 42.5338H109.835V46.5088C109.835 47.1385 109.852 47.5474 109.891 47.734C109.954 48.034 110.102 48.2763 110.336 48.4577C110.574 48.6392 110.898 48.7314 111.305 48.7314C111.721 48.7314 112.036 48.6443 112.246 48.4748C112.457 48.3005 112.585 48.0925 112.627 47.8405C112.67 47.5888 112.692 47.1725 112.692 46.5916V42.534H114.178V46.3907C114.178 47.2693 114.137 47.8939 114.06 48.2571C113.977 48.62 113.832 48.93 113.617 49.1817C113.401 49.4311 113.115 49.6274 112.757 49.7772C112.399 49.9272 111.929 50 111.351 50C110.651 50 110.123 49.9226 109.763 49.758C109.402 49.5982 109.116 49.3851 108.908 49.1283C108.698 48.8669 108.56 48.5957 108.494 48.3128C108.397 47.8937 108.349 47.2691 108.349 46.451V42.5338Z" fill="#006B5A"/>
<path d="M115.004 49.8689L117.536 46.044L115.241 42.5338H116.969L118.412 44.7176L119.86 42.5338H121.591L119.289 46.044L121.816 49.8689H120.039L118.412 47.3851L116.786 49.8689H115.004Z" fill="#006B5A"/>
<path d="M125.171 46.5088H122.406V47.9129H125.171V46.5088Z" fill="#006B5A"/>
<path d="M129.882 46.9591L128.865 44.243L127.873 46.9591H129.882ZM132.598 49.8689H130.998L130.366 48.1984H127.423L126.813 49.8689H125.244L128.091 42.5338H129.659L132.598 49.8689Z" fill="#006B5A"/>
<path d="M134.874 45.6376H135.971C136.68 45.6376 137.123 45.6085 137.299 45.5456C137.476 45.4876 137.614 45.381 137.716 45.2356C137.815 45.0904 137.866 44.9064 137.866 44.6836C137.866 44.4369 137.798 44.2381 137.667 44.0833C137.537 43.9333 137.351 43.8364 137.111 43.7976C136.99 43.783 136.629 43.7735 136.031 43.7735H134.874V45.6376ZM133.387 49.8689V42.5338H136.508C137.29 42.5338 137.861 42.6018 138.217 42.7324C138.573 42.863 138.858 43.0953 139.072 43.4344C139.285 43.7733 139.391 44.1559 139.391 44.5865C139.391 45.1387 139.231 45.5937 138.907 45.952C138.587 46.3102 138.103 46.5377 137.462 46.6297C137.781 46.8186 138.045 47.022 138.251 47.2446C138.459 47.4674 138.74 47.8646 139.091 48.4358L139.987 49.8687H138.215L137.154 48.2661C136.772 47.6995 136.51 47.3389 136.37 47.1912C136.229 47.0435 136.082 46.9395 135.924 46.8863C135.765 46.8331 135.518 46.8042 135.174 46.8042H134.874V49.8689H133.387Z" fill="#006B5A"/>
<path d="M142.436 49.8689V43.7733H140.265V42.5338H146.082V43.7733H143.923V49.8689H142.436Z" fill="#006B5A"/>
<path d="M146.654 47.4917L148.099 47.3465C148.188 47.8306 148.36 48.184 148.624 48.4115C148.89 48.6389 149.246 48.7506 149.694 48.7506C150.169 48.7506 150.529 48.6489 150.769 48.4503C151.011 48.2469 151.132 48.012 151.132 47.7432C151.132 47.5689 151.079 47.4189 150.979 47.2978C150.878 47.1769 150.701 47.0703 150.449 46.9832C150.275 46.9203 149.883 46.8137 149.268 46.6611C148.479 46.4649 147.922 46.2206 147.603 45.9325C147.155 45.5257 146.932 45.0343 146.932 44.451C146.932 44.0782 147.036 43.7247 147.247 43.4004C147.46 43.0761 147.762 42.8267 148.159 42.6547C148.559 42.4853 149.036 42.3981 149.599 42.3981C150.517 42.3981 151.209 42.6015 151.669 43.0105C152.134 43.4198 152.376 43.9619 152.4 44.6445L150.916 44.6928C150.854 44.3151 150.718 44.044 150.512 43.8794C150.304 43.7123 149.994 43.6277 149.583 43.6277C149.154 43.6277 148.82 43.7171 148.58 43.8937C148.423 44.01 148.346 44.16 148.346 44.3537C148.346 44.528 148.418 44.6732 148.566 44.7992C148.75 44.9566 149.205 45.1212 149.921 45.2932C150.643 45.4624 151.17 45.6369 151.514 45.8209C151.86 45.9998 152.129 46.2515 152.323 46.5666C152.519 46.8812 152.618 47.2684 152.618 47.7335C152.618 48.1547 152.5 48.5469 152.267 48.9147C152.032 49.2827 151.703 49.5539 151.277 49.733C150.851 49.9119 150.319 49.9991 149.679 49.9991C148.755 49.9991 148.04 49.7862 147.544 49.3599C147.048 48.9346 146.753 48.31 146.654 47.4917Z" fill="#006B5A"/>
</svg>
