<svg width="144" height="32" viewBox="0 0 144 32" fill="none" xmlns="http://www.w3.org/2000/svg">
<path d="M65.5648 15.4982C65.5123 15.5792 65.5132 15.6852 65.5669 15.7653L71.2989 24.3137C71.4042 24.4708 71.2957 24.6857 71.1111 24.6857H66.5013C66.4239 24.6857 66.3517 24.6451 66.3096 24.5779L62.1384 17.9217C62.0145 17.7239 61.7182 17.8148 61.7182 18.0506V24.4489C61.7182 24.5797 61.6158 24.6857 61.4896 24.6857H57.6C57.4737 24.6857 57.3714 24.5797 57.3714 24.4489V7.55296C57.3714 7.42214 57.4737 7.3161 57.6 7.3161H61.4896C61.6158 7.3161 61.7182 7.42214 61.7182 7.55296V13.3051C61.7182 13.541 62.0147 13.6319 62.1385 13.4339L65.8974 7.42413C65.9395 7.35676 66.0117 7.3161 66.0892 7.3161H70.4328C70.6156 7.3161 70.7244 7.52755 70.6226 7.68491L65.5648 15.4982Z" fill="#45116D"/>
<path d="M74.12 7.55296C74.12 7.42214 74.2223 7.3161 74.3486 7.3161H84.7208C84.8471 7.3161 84.9494 7.42214 84.9494 7.55296V11.0664C84.9494 11.1972 84.8471 11.3032 84.7208 11.3032H78.6953C78.5691 11.3032 78.4668 11.4093 78.4668 11.5401V13.8165C78.4668 13.9474 78.5691 14.0534 78.6953 14.0534H84.6958C84.8221 14.0534 84.9244 14.1595 84.9244 14.2903V17.6721C84.9244 17.8029 84.8221 17.9089 84.6958 17.9089H78.6953C78.5691 17.9089 78.4668 18.015 78.4668 18.1458V20.4617C78.4668 20.5926 78.5691 20.6986 78.6953 20.6986H84.7208C84.8471 20.6986 84.9494 20.8046 84.9494 20.9355V24.4489C84.9494 24.5797 84.8471 24.6857 84.7208 24.6857H74.3486C74.2223 24.6857 74.12 24.5797 74.12 24.4489V7.55296Z" fill="#45116D"/>
<path d="M88.7138 7.55296C88.7138 7.42214 88.8162 7.3161 88.9424 7.3161H92.832C92.9582 7.3161 93.0606 7.42214 93.0606 7.55296V24.4489C93.0606 24.5797 92.9582 24.6857 92.832 24.6857H88.9424C88.8162 24.6857 88.7138 24.5797 88.7138 24.4489V7.55296Z" fill="#45116D"/>
<path d="M96.8372 7.55296C96.8372 7.42214 96.9396 7.3161 97.0658 7.3161H103.932C104.915 7.3161 105.785 7.53541 106.542 7.97404C107.3 8.40389 107.896 9.02236 108.329 9.82943C108.77 10.6365 108.991 11.5971 108.991 12.7112C108.991 13.8165 108.812 14.7157 108.454 15.4088C108.095 16.1018 107.667 16.6194 107.167 16.9615C106.787 17.2214 106.432 17.4079 106.101 17.521C105.952 17.5716 105.875 17.7515 105.953 17.8917L109.565 24.3298C109.654 24.4877 109.544 24.6857 109.368 24.6857H105.018C104.934 24.6857 104.856 24.6376 104.817 24.5606L101.446 18.0342C101.423 17.9895 101.378 17.9616 101.329 17.9616C101.256 17.9616 101.196 18.0232 101.196 18.0992V24.4489C101.196 24.5797 101.094 24.6857 100.968 24.6857H97.0658C96.9396 24.6857 96.8372 24.5797 96.8372 24.4489V7.55296ZM101.196 14.5929C101.196 14.7237 101.299 14.8298 101.425 14.8298H102.371C102.912 14.8298 103.403 14.6938 103.844 14.4219C104.294 14.1499 104.519 13.6279 104.519 12.856C104.519 12.0927 104.298 11.5752 103.857 11.3032C103.424 11.0313 102.941 10.8953 102.408 10.8953H101.425C101.299 10.8953 101.196 11.0013 101.196 11.1322V14.5929Z" fill="#45116D"/>
<path d="M116.385 15.9873C116.385 16.8339 116.551 17.6042 116.884 18.2984C117.226 18.9841 117.7 19.5302 118.308 19.9365C118.916 20.3429 119.624 20.546 120.431 20.546C121.239 20.546 121.947 20.3429 122.555 19.9365C123.163 19.5302 123.633 18.9841 123.966 18.2984C124.308 17.6042 124.478 16.8339 124.478 15.9873C124.478 15.1407 124.308 14.3746 123.966 13.6889C123.633 13.0032 123.163 12.4571 122.555 12.0508C121.947 11.636 121.239 11.4286 120.431 11.4286C119.624 11.4286 118.916 11.636 118.308 12.0508C117.7 12.4571 117.226 13.0032 116.884 13.6889C116.551 14.3746 116.385 15.1407 116.385 15.9873ZM111.85 15.9873C111.85 14.7683 112.067 13.6339 112.5 12.5841C112.933 11.5259 113.537 10.6032 114.311 9.81587C115.085 9.02857 115.993 8.41482 117.034 7.9746C118.083 7.53439 119.216 7.31429 120.431 7.31429C121.664 7.31429 122.801 7.53439 123.841 7.9746C124.882 8.41482 125.79 9.02857 126.564 9.81587C127.339 10.6032 127.938 11.5259 128.363 12.5841C128.788 13.6339 129 14.7683 129 15.9873C129 17.2148 128.792 18.3577 128.376 19.4159C127.959 20.4656 127.368 21.3884 126.602 22.1841C125.844 22.9714 124.941 23.5852 123.891 24.0254C122.842 24.4656 121.689 24.6857 120.431 24.6857C119.132 24.6857 117.958 24.4656 116.909 24.0254C115.86 23.5852 114.956 22.9714 114.199 22.1841C113.449 21.3884 112.87 20.4656 112.462 19.4159C112.054 18.3577 111.85 17.2148 111.85 15.9873Z" fill="#45116D"/>
<path d="M137.909 7.31429C138.95 7.31429 139.87 7.4328 140.669 7.66984C141.477 7.89841 142.126 8.14392 142.618 8.40635C142.949 8.5777 143.194 8.71052 143.351 8.8048C143.449 8.8636 143.474 8.98788 143.417 9.0866L141.579 12.2374C141.508 12.3592 141.344 12.3898 141.226 12.3117C141.102 12.2292 140.946 12.1337 140.757 12.0254C140.432 11.8392 140.057 11.6741 139.632 11.5302C139.216 11.3778 138.8 11.3016 138.383 11.3016C137.85 11.3016 137.413 11.3905 137.072 11.5683C136.739 11.7376 136.572 12.0042 136.572 12.3683C136.572 12.6222 136.664 12.8508 136.847 13.054C137.03 13.2571 137.322 13.4603 137.721 13.6635C138.129 13.8667 138.667 14.0868 139.333 14.3238C139.957 14.5439 140.536 14.8106 141.069 15.1238C141.61 15.437 142.081 15.8095 142.48 16.2413C142.88 16.673 143.192 17.1683 143.417 17.727C143.65 18.2857 143.767 18.9164 143.767 19.619C143.767 20.5164 143.584 21.2868 143.217 21.9302C142.859 22.5651 142.372 23.0857 141.756 23.4921C141.148 23.8984 140.461 24.1989 139.695 24.3937C138.929 24.5884 138.146 24.6857 137.347 24.6857C136.164 24.6857 135.107 24.5545 134.174 24.2921C133.25 24.0212 132.5 23.7291 131.926 23.4159C131.505 23.183 131.208 23.0039 131.036 22.8787C130.952 22.8183 130.937 22.7066 130.989 22.6176L132.902 19.3077C132.973 19.1851 133.14 19.1518 133.26 19.2269C133.357 19.2873 133.478 19.3587 133.624 19.4413C133.924 19.6106 134.282 19.7884 134.699 19.9746C135.123 20.1608 135.569 20.3175 136.035 20.4444C136.502 20.5714 136.943 20.6349 137.359 20.6349C137.992 20.6349 138.463 20.5291 138.771 20.3175C139.079 20.0974 139.233 19.7968 139.233 19.4159C139.233 19.1365 139.137 18.8868 138.946 18.6667C138.754 18.4381 138.442 18.2138 138.009 17.9937C137.576 17.7651 136.997 17.5111 136.273 17.2317C135.556 16.9524 134.882 16.6053 134.249 16.1905C133.624 15.7672 133.112 15.2254 132.713 14.5651C132.321 13.9048 132.126 13.0836 132.126 12.1016C132.126 11.1111 132.396 10.2603 132.938 9.54921C133.487 8.82963 134.203 8.27937 135.086 7.89841C135.969 7.50899 136.91 7.31429 137.909 7.31429Z" fill="#45116D"/>
<g clip-path="url(#clip0_62_40)">
<path d="M41.9794 15.8408C41.5587 13.0246 39.1819 10.5194 35.1551 8.90422C31.1634 7.30316 25.7984 6.70089 20.0257 7.56321C14.253 8.42558 9.29782 10.5696 5.94835 13.2673C2.56937 15.9888 1.0285 19.0793 1.4492 21.8955C1.86996 24.7116 4.24668 27.2169 8.27351 28.8321C12.2652 30.4332 17.6305 31.035 23.4032 30.1726L23.6059 31.529L23.0472 31.6084C11.4308 33.168 1.2832 29.0475 0.118993 22.2612L0.0928221 22.0981C-0.95177 15.1055 7.88187 7.99069 19.8231 6.20683L20.3813 6.1275C32.0906 4.55543 42.3075 8.75486 43.3357 15.6382L43.3584 15.8018C44.2422 22.7413 35.4538 29.759 23.6059 31.529L23.4032 30.1726C29.1759 29.3102 34.1308 27.1667 37.4802 24.469C40.8592 21.7475 42.4 18.657 41.9794 15.8408Z" fill="#45116D"/>
<path d="M41.4238 18.8495C41.4237 16.8947 39.7288 14.7236 36.0582 12.9598C32.4858 11.2432 27.4542 10.1433 21.822 10.1433C16.19 10.1433 11.1582 11.2432 7.58588 12.9598C3.91541 14.7236 2.22083 16.8948 2.2207 18.8495C2.2207 20.8044 3.91527 22.9759 7.58588 24.7397C11.1582 26.4563 16.19 27.5562 21.822 27.5562V28.9277L21.281 28.9245C9.94808 28.7866 0.849274 24.3285 0.849274 18.8495C0.849515 13.2838 10.2392 8.7719 21.822 8.77187C33.4049 8.77187 42.795 13.2838 42.7953 18.8495L42.7881 19.1098C42.5011 24.5555 33.2241 28.9277 21.822 28.9277V27.5562C27.4542 27.5562 32.4858 26.4563 36.0582 24.7397C39.7289 22.9759 41.4238 20.8044 41.4238 18.8495Z" fill="#45116D"/>
<path d="M20.7327 16.9431V3.8691V1.14534C20.7327 0.328215 21.0367 0.0608826 21.5595 0.0608826C22.0824 0.0608826 22.3669 0.373971 22.3669 1.14534V1.96247C22.3669 10.4061 25.6899 13.947 26.9973 15.5812C28.3047 17.2155 33.8067 23.2078 37.62 25.9315L36.2581 26.4763C30.8106 23.2078 23.1841 19.2311 22.0946 18.5774C21.0051 17.9237 20.7327 17.4879 20.7327 16.9431Z" fill="#45116D"/>
</g>
<defs>
<clipPath id="clip0_62_40">
<rect width="43.4286" height="32" fill="white"/>
</clipPath>
</defs>
</svg>
