<svg width="52" height="35" viewBox="0 0 52 35" fill="none" xmlns="http://www.w3.org/2000/svg">
<g clip-path="url(#clip0_158_320)">
<path d="M34.2978 0.0425603C20.7885 -0.625189 6.07214 6.64353 1.41641 16.2858C-3.23315 25.928 3.93929 34.2879 17.4424 34.9569C30.948 35.6295 45.6669 28.3571 50.3226 18.7173C54.9771 9.07384 47.7985 0.716481 34.2978 0.0425603Z" fill="#454B00"/>
<path d="M42.8598 16.3954C41.7502 18.4172 38.4695 19.4305 36.1194 20.7364C35.3665 21.1523 35.9552 21.3276 35.9392 21.6806C35.8725 22.9174 34.026 24.5874 31.9425 25.3921C30.0948 26.1018 27.9509 26.1475 26.8524 25.539C24.7837 24.3948 25.7686 22.1176 26.5302 20.0353C26.5561 19.7033 26.5117 19.3305 25.8958 19.3626C25.4403 19.4392 24.9812 19.7885 24.8182 20.0353L20.4822 27.7792L16.3646 29.7961L17.4755 27.8101L21.8646 20.0353C21.9744 19.7897 21.8856 19.4947 21.5128 19.4268C20.9216 19.4157 20.455 19.7983 20.1119 20.1316C18.5283 22.2286 16.9682 24.5096 13.5726 25.7414C11.7681 26.3956 9.63778 26.4129 8.56395 25.7488C7.34941 24.9959 7.35682 23.3518 8.68244 22.0953C9.0626 21.7337 9.85748 21.5448 9.56372 21.1388C8.64912 19.8872 6.45332 18.9553 7.60244 16.9311C8.1591 15.9535 9.23293 14.976 10.44 14.2749C12.6667 12.9875 15.7018 12.6407 17.4298 13.3233C19.2923 14.054 20.755 15.5598 23.2704 15.4006C23.6049 15.3932 23.7629 15.308 23.774 15.1549C23.0211 12.953 18.1815 12.6518 19.5812 9.47352C20.3205 7.79489 22.2435 6.23104 24.6035 5.39543C29.1975 3.76494 29.2098 6.06565 31.1859 6.01751C33.1707 5.97431 35.7442 3.66619 38.5793 5.1819C40.0321 5.96073 40.2283 7.49249 39.0829 9.17852C36.9254 12.3655 31.6611 12.8221 28.4113 15.0846C28.2496 15.2426 28.3137 15.3228 28.647 15.3228C31.0255 15.408 34.2149 13.8281 36.9328 13.0246C39.4594 12.2803 42.1563 12.537 42.9672 13.7799C43.4078 14.4551 43.3967 15.4154 42.8598 16.3954Z" fill="white"/>
</g>
<defs>
<clipPath id="clip0_158_320">
<rect width="52" height="35" fill="white"/>
</clipPath>
</defs>
</svg>
