<svg width="141" height="32" viewBox="0 0 141 32" fill="none" xmlns="http://www.w3.org/2000/svg">
<path d="M79.5809 24.8303V16.3985C79.5809 15.4473 79.3469 14.7061 78.8789 14.1748C78.4109 13.635 77.7769 13.365 76.977 13.365C76.4834 13.365 76.0409 13.4807 75.6495 13.7121C75.2581 13.9349 74.9475 14.2691 74.7177 14.7147C74.4879 15.1517 74.3731 15.6744 74.3731 16.2828L73.0073 15.473C72.9988 14.5133 73.2115 13.6692 73.6455 12.9409C74.088 12.2039 74.6837 11.6298 75.4325 11.2185C76.1814 10.8072 77.0153 10.6015 77.9343 10.6015C79.4575 10.6015 80.6234 11.0643 81.4318 11.9897C82.2487 12.9066 82.6571 14.1148 82.6571 15.6144V24.8303H79.5809ZM63 24.8303V10.9486H65.7188V15.2545H66.1017V24.8303H63ZM71.3096 24.8303V16.437C71.3096 15.4687 71.0756 14.7147 70.6076 14.1748C70.1395 13.635 69.5013 13.365 68.6929 13.365C67.91 13.365 67.2803 13.635 66.8038 14.1748C66.3358 14.7147 66.1017 15.4173 66.1017 16.2828L64.7232 15.3573C64.7232 14.4576 64.9444 13.6478 65.3869 12.928C65.8294 12.2082 66.4251 11.6427 67.174 11.2314C67.9313 10.8115 68.778 10.6015 69.7141 10.6015C70.7437 10.6015 71.6032 10.8243 72.2925 11.2699C72.9903 11.7069 73.5093 12.3068 73.8497 13.0694C74.1986 13.8235 74.3731 14.6761 74.3731 15.6272V24.8303H71.3096Z" fill="#333D29"/>
<path d="M87.9582 31L90.6132 23.6607L90.6642 25.8201L84.6522 10.9486H87.8561L92.1194 21.9512H91.3024L95.4509 10.9486H98.5271L90.8429 31H87.9582Z" fill="#333D29"/>
<path d="M104.742 24.8303L100.53 10.9229L103.543 10.9486L106.236 19.856L108.967 10.9486H111.559L114.277 19.856L116.983 10.9486H119.996L115.784 24.8303H113.384L110.257 15.2802L107.142 24.8303H104.742Z" fill="#333D29"/>
<path d="M122.006 8.84062V6H125.082V8.84062H122.006ZM122.006 24.8303V10.9486H125.082V24.8303H122.006Z" fill="#333D29"/>
<path d="M134.114 25.2159C132.718 25.2159 131.493 24.9117 130.437 24.3033C129.382 23.6949 128.557 22.8509 127.961 21.7712C127.374 20.6915 127.08 19.449 127.08 18.0437C127.08 16.527 127.37 15.2117 127.948 14.0977C128.527 12.9751 129.331 12.1054 130.361 11.4884C131.391 10.8715 132.582 10.563 133.935 10.563C135.365 10.563 136.577 10.9015 137.573 11.5784C138.577 12.2468 139.321 13.1937 139.807 14.419C140.292 15.6444 140.475 17.0883 140.355 18.7506H137.305V17.6195C137.296 16.1114 137.032 15.0103 136.513 14.3162C135.994 13.6221 135.177 13.2751 134.063 13.2751C132.803 13.2751 131.867 13.6692 131.254 14.4576C130.642 15.2374 130.335 16.3813 130.335 17.8895C130.335 19.2948 130.642 20.383 131.254 21.1542C131.867 21.9255 132.761 22.3111 133.935 22.3111C134.692 22.3111 135.343 22.144 135.888 21.8098C136.441 21.467 136.866 20.9743 137.164 20.3316L140.202 21.2571C139.675 22.5081 138.858 23.4807 137.751 24.1748C136.654 24.8689 135.441 25.2159 134.114 25.2159ZM129.365 18.7506V16.4113H138.849V18.7506H129.365Z" fill="#333D29"/>
<g clip-path="url(#clip0_114_28)">
<path d="M17.0065 12.0742C16.3199 9.49753 15.0413 7.5146 12.0205 7.34092C10.9508 7.25162 9.95172 7.46132 8.94051 7.62248C6.96521 7.93728 5.82823 9.0894 5.26969 10.9608C4.86328 12.3226 4.57774 13.7115 4.21223 15.0812C3.45889 17.9044 2.77694 20.7451 2.06427 23.5783C1.37931 26.3013 0.883802 29.0714 0.0271808 31.7516L0.026615 31.7534C0.000748714 31.8343 -0.0255961 31.9167 0.0481035 31.9898C0.0759674 31.9874 0.108465 31.9929 0.129899 31.98C0.165229 31.9587 0.196243 31.9281 0.224189 31.8971C1.41131 30.5782 2.80455 29.7903 4.66504 30.0657C5.37573 30.1709 6.00624 29.8838 6.53168 29.3926C6.93035 29.02 7.2505 28.5911 7.49535 28.1003C7.95559 27.1778 8.23079 26.1918 8.49609 25.2048C9.19599 22.601 9.87287 19.991 10.569 17.3862C10.7202 16.8206 10.9138 16.2662 11.0879 15.7066C11.2297 15.8778 11.2913 16.035 11.339 16.1963C11.9141 18.143 12.4822 20.0918 13.0627 22.0369C13.366 23.0533 13.8814 23.9488 14.7129 24.6251C16.1387 25.7849 18.1139 25.6325 19.6136 24.275C20.4906 23.4811 20.93 22.4329 21.3037 21.3543C21.75 20.0657 22.1589 18.7642 22.5949 17.4719C22.6482 17.3139 22.6434 17.0951 22.8698 17.036C23.0294 17.1355 23.0347 17.2979 23.0727 17.4474C23.6074 19.5522 24.1373 21.6582 24.6822 23.7604C25.0387 25.136 25.4128 26.507 26.1631 27.738C26.8605 28.8822 27.8721 29.6308 29.203 29.6829C31.3705 29.7678 33.0863 28.8603 34.2357 26.9832C34.9659 25.7906 35.3273 24.459 35.6611 23.1191C35.688 23.0112 36 22.0493 36.0157 21.9426L36.0394 22.0181C36.0791 22.124 36.1029 22.2358 36.1355 22.3444C36.5933 23.8655 36.9012 25.4377 37.6213 26.8703C38.1253 27.8729 38.7952 28.7356 39.9325 29.0722C41.6933 29.5934 43.3176 29.1356 44.8363 28.2558C46.3859 27.358 47.159 25.8771 47.6232 24.2177C48.0473 22.7014 48.422 21.1714 48.8363 19.6523C50.2859 14.3372 51.7047 9.01242 53.7369 3.87751C53.9083 3.44453 53.9562 2.9946 53.7441 2.5522C53.5156 2.07546 53.0511 1.94213 52.6056 2.22962C52.2965 2.42905 52.1663 2.73405 52.1055 3.08447C52.0413 3.45468 52.0888 3.82314 52.1153 4.18948C52.1567 4.76445 51.8905 5.17117 51.4616 5.50034C51.0423 5.82218 50.7227 5.74253 50.5218 5.25321C50.2445 4.57804 50.2052 3.87524 50.3464 3.1641C50.4626 2.57813 50.7665 2.04709 50.8632 1.45423C50.9698 0.800526 50.4875 0.127956 49.884 0.0876666C49.2846 0.0476561 48.8689 0.524497 48.8549 1.2389C48.8459 1.69925 49.0504 2.13394 49.0244 2.58667C48.9282 4.26717 48.2781 5.72773 46.8601 6.64179C45.6198 7.44131 44.9185 8.52123 44.5049 9.86178C43.7057 12.4521 43.0048 15.0705 42.2738 17.6803C42.0924 18.3276 41.9729 18.9961 41.67 19.6577C41.2006 18.19 40.7719 16.762 40.2861 15.3537C39.736 13.7589 38.652 12.7224 36.9642 12.3676C35.6076 12.0824 34.3462 12.1894 33.3457 13.2741C32.7741 13.8937 32.3219 14.602 31.9677 15.3698C31.3475 16.7145 30.9028 18.1251 30.4038 19.5154C30.3546 19.6525 30.3601 19.8317 30.1658 19.8898C29.9702 19.7554 30.006 19.5301 29.9667 19.3508C29.5319 17.3694 29.1552 15.3753 28.6535 13.4087C28.305 12.0427 27.9184 10.6891 27.1197 9.49993C26.3245 8.31609 25.2608 7.59151 23.7983 7.44322C22.5719 7.31887 21.4355 7.60741 20.2861 7.95421C19.4009 8.22126 18.7776 8.77485 18.2778 9.51475C17.8577 10.1366 17.6436 10.8445 17.3983 11.5414C17.3332 11.7266 17.3368 11.9741 17.0065 12.0742Z" fill="#8D573F"/>
<path d="M45.9649 4.33029C45.9316 4.17294 45.8901 4.04757 45.8922 3.92292C45.8995 3.47567 46.2494 3.11426 46.6255 3.14915C46.9738 3.18147 47.2274 3.57258 47.1895 4.01906C47.1518 4.46391 46.8466 4.75115 46.4536 4.72835C46.2044 4.71389 46.0772 4.56037 45.9649 4.33029Z" fill="#8D573F"/>
</g>
<defs>
<clipPath id="clip0_114_28">
<rect width="54" height="32" fill="white"/>
</clipPath>
</defs>
</svg>
