<svg width="64" height="64" viewBox="0 0 64 64" fill="none" xmlns="http://www.w3.org/2000/svg">
<g clip-path="url(#clip0_158_285)">
<path d="M62.4903 40.9272C63.3436 38.0062 63.7703 34.9867 63.7703 31.9672C63.7703 14.3754 49.4605 0.098465 31.9015 0.098465C14.3426 0.098465 0 14.3754 0 31.9344C0 49.5262 14.3097 63.8031 31.8687 63.8031C34.921 63.8031 37.9405 63.3764 40.8287 62.5231L41.1897 62.4246L62.359 41.2554L62.4903 40.9272ZM59.7333 39.7128L39.6472 59.799C37.12 60.521 34.5272 60.8492 31.8687 60.8492C15.9508 60.8492 2.95385 47.8851 2.95385 31.9344C2.95385 15.9836 15.9508 3.01949 31.8687 3.01949C47.7867 3.01949 60.7836 15.9836 60.7836 31.9344C60.8164 34.56 60.4554 37.1856 59.7333 39.7128Z" fill="#0000FF"/>
<path d="M40.1394 18.3138C41.4194 18.3138 42.6009 18.8062 43.4871 19.7251L45.8502 17.4277C44.3404 15.8523 42.3056 14.999 40.1394 14.999C35.7415 15.0318 32.164 18.6092 32.164 23.0072C32.164 27.4051 35.7415 30.9826 40.1394 30.9826C42.3056 30.9826 44.3404 30.1292 45.8502 28.5538L43.4871 26.2564C42.6009 27.1754 41.3866 27.6677 40.1394 27.6677C37.5466 27.6677 35.4461 25.5672 35.4461 22.9744C35.4461 20.4144 37.5466 18.3138 40.1394 18.3138ZM40.1394 36.1682C41.4194 36.1682 42.6009 36.6605 43.4871 37.5795L45.8502 35.2821C44.3404 33.7067 42.3056 32.8533 40.1394 32.8533C35.7415 32.8533 32.164 36.4308 32.164 40.8287C32.164 45.2267 35.7415 48.8041 40.1394 48.8041C42.3056 48.8041 44.3404 47.9508 45.8502 46.3754L43.4871 44.078C42.6009 44.9969 41.3866 45.4892 40.1394 45.4892C37.5466 45.4892 35.4461 43.3887 35.4461 40.7959C35.4461 38.3015 37.5466 36.1682 40.1394 36.1682ZM30.3589 20.5456C30.3589 17.4933 27.8974 15.0318 24.845 15.0318H17.9856V31.2451H21.2676V26.0595H23.6635L26.8799 31.2451H30.7527L27.2081 25.5344C29.0789 24.6154 30.3589 22.7446 30.3589 20.5456ZM24.845 22.7774H21.3004V18.3138H24.845C26.0594 18.3138 27.0768 19.2985 27.0768 20.5456C27.044 21.76 26.0594 22.7774 24.845 22.7774ZM26.683 43.8154C28.4553 42.6667 29.604 40.6646 29.604 38.7282C29.604 35.5118 26.9784 32.8862 23.762 32.8862C20.5456 32.8862 17.9199 35.5118 17.9199 38.7282H21.202C21.202 37.3169 22.3507 36.1682 23.762 36.1682C25.1733 36.1682 26.322 37.3169 26.322 38.7282C26.322 39.4174 25.8625 40.4349 24.8779 41.0585L17.9199 46.08V48.8697H30.4245V45.5877H24.2215L26.683 43.8154Z" fill="#0000FF"/>
</g>
<defs>
<clipPath id="clip0_158_285">
<rect width="64" height="64" fill="white"/>
</clipPath>
</defs>
</svg>
