<svg width="34" height="56" viewBox="0 0 34 56" fill="none" xmlns="http://www.w3.org/2000/svg">
<path fill-rule="evenodd" clip-rule="evenodd" d="M0 9.59151L16.7834 0L33.5669 9.59151V27.9752V29.1742L29.9705 27.1759V25.977V11.9894L16.7834 4.3961L3.59645 11.9894V30.3731L16.7834 23.1795L29.9705 30.3731L33.5669 32.3714V46.3589L16.7834 55.9505L0 46.3589V41.1636V39.9647L3.59645 37.9664V39.1654V43.961L16.7834 51.5543L29.9705 43.961V34.7692L16.7834 27.1759L3.59645 34.7692L0 36.7675V9.59151Z" fill="#F3775C"/>
<path fill-rule="evenodd" clip-rule="evenodd" d="M16.7834 30.3731L14.7854 31.5721V47.1582L16.7834 48.3572L18.7814 47.1582V31.5721L16.7834 30.3731Z" fill="#F3775C"/>
<path fill-rule="evenodd" clip-rule="evenodd" d="M26.3739 11.9894H7.19287V15.9859H14.7854V19.1831V19.9823V21.1812L16.7834 19.9823L18.7814 21.1812V19.9823V19.1831V15.9859H26.3739V11.9894Z" fill="#F3775C"/>
</svg>
